<svg width="216" height="67" viewBox="0 0 216 67" fill="none" xmlns="http://www.w3.org/2000/svg">
<mask id="mask0_483_10" style="mask-type:luminance" maskUnits="userSpaceOnUse" x="0" y="6" width="79" height="61">
<path d="M78.3629 6.02789H0V66.307H78.3629V6.02789Z" fill="white"/>
</mask>
<g mask="url(#mask0_483_10)">
<path opacity="0.8" d="M58.7187 46.1542C66.1797 46.927 73.126 38.8841 74.2336 28.1899C75.3413 17.4957 70.1908 8.19993 62.7297 7.42717C55.2687 6.6544 48.3224 14.6973 47.2148 25.3915C46.1071 36.0856 51.2576 45.3814 58.7187 46.1542Z" fill="#FDC040"/>
<path d="M47.5354 51.2807C54.6341 48.8571 57.5726 38.6441 54.0987 28.4694C50.6249 18.2947 42.0542 12.0112 34.9556 14.4348C27.8569 16.8585 24.9184 27.0714 28.3923 37.2461C31.8661 47.4208 40.4368 53.7043 47.5354 51.2807Z" fill="#FDC040"/>
<path d="M27.1256 39.1814H75.4201C75.8055 39.3488 76.692 39.9851 77.1545 41.1907C77.7327 42.6977 79.3675 64.8 51.7396 60.2791C30.0013 60.2791 24.9288 59.6093 25.1215 59.2744C29.1349 58.2698 29.6372 54.2512 30.1395 51.2372C30.6419 48.2233 27.1256 39.1814 27.1256 39.1814Z" fill="#81B13D"/>
<path d="M63.4107 18.518C62.7766 18.518 62.2628 19.032 62.2628 19.6659V19.8493C62.2628 20.4834 62.7766 20.9972 63.4107 20.9972C64.0448 20.9972 64.5585 20.4834 64.5585 19.8493V19.6659C64.5585 19.0318 64.0448 18.518 63.4107 18.518Z" fill="#253D4E"/>
<path d="M66.3921 23.6392C65.758 23.6392 65.2442 24.153 65.2442 24.7871V24.9704C65.2442 25.6044 65.758 26.1183 66.3921 26.1183C67.0262 26.1183 67.54 25.6045 67.54 24.9704V24.7871C67.54 24.153 67.0262 23.6392 66.3921 23.6392Z" fill="#253D4E"/>
<path d="M41.2579 22.5612L41.173 22.3985C40.8796 21.8364 40.1858 21.6186 39.6242 21.9121C39.0622 22.2055 38.8444 22.8989 39.1378 23.4609L39.2228 23.6236C39.4274 24.016 39.8273 24.2407 40.2412 24.2407C40.4202 24.2407 40.6018 24.1988 40.7715 24.11C41.3335 23.8166 41.5513 23.1233 41.2579 22.5612Z" fill="#253D4E"/>
<path d="M46.2711 25.7207L46.1862 25.558C45.8928 24.9959 45.1991 24.7781 44.6374 25.0716C44.0754 25.365 43.8576 26.0584 44.151 26.6204L44.2359 26.7831C44.4406 27.1755 44.8404 27.4002 45.2544 27.4002C45.4334 27.4002 45.615 27.3582 45.7847 27.2695C46.3467 26.9761 46.5645 26.2827 46.2711 25.7207Z" fill="#253D4E"/>
<path d="M39.1286 48.5587L35.7143 45.1442C35.2658 44.696 34.539 44.6958 34.091 45.1441C33.6425 45.5924 33.6425 46.3192 34.0908 46.7674L37.5051 50.1818C37.7294 50.4061 38.0229 50.5181 38.3168 50.5181C38.6105 50.5181 38.9044 50.4061 39.1284 50.182C39.5769 49.7337 39.5769 49.0069 39.1286 48.5587Z" fill="#253D4E"/>
<path d="M49.2735 46.4195C48.906 45.9031 48.1895 45.7822 47.6727 46.1501L35.7567 54.6335C35.2403 55.0012 35.1197 55.7179 35.4873 56.2343C35.7113 56.549 36.0645 56.7166 36.4234 56.7166C36.6536 56.7166 36.8862 56.6474 37.0881 56.5037L49.0041 48.0203C49.5205 47.6526 49.6411 46.9359 49.2735 46.4195Z" fill="#253D4E"/>
<path d="M53.4861 48.151C53.1188 47.6346 52.402 47.5137 51.8853 47.8816L47.3114 51.138C46.7948 51.5059 46.6743 52.2225 47.042 52.7389C47.2659 53.0536 47.6191 53.2212 47.978 53.2212C48.2082 53.2212 48.4407 53.152 48.6428 53.0081L53.2167 49.7518C53.7333 49.3841 53.8538 48.6674 53.4861 48.151Z" fill="#253D4E"/>
<path d="M78.1461 42.9426C77.7751 42.4283 77.0579 42.3123 76.5435 42.6828L76.1611 42.9585C76.1627 42.8601 76.165 42.7618 76.165 42.6631C76.165 41.568 75.7389 40.5376 74.9629 39.7595C74.1871 38.9857 73.1566 38.5596 72.0616 38.5596H71.7218C72.9816 36.1256 73.6212 33.1946 73.6212 29.8111C73.6212 23.1754 71.1338 15.9222 67.2844 11.3329C66.8768 10.8472 66.1528 10.7835 65.6672 11.1912C65.1816 11.5986 65.118 12.3227 65.5255 12.8084C69.0489 17.0088 71.3256 23.6828 71.3256 29.8111C71.3256 33.3428 70.5664 36.2823 69.0691 38.5596H66.7964L67.8063 37.8407C68.3228 37.4731 68.4433 36.7563 68.0756 36.2399C67.7082 35.7235 66.9917 35.6026 66.4749 35.9705L62.8383 38.5596H56.0103C56.6984 35.0741 55.9817 31.1801 53.9022 27.1968C52.4136 24.3463 50.2994 21.5881 47.8676 19.2513C50.3724 12.9157 54.5177 8.86263 58.5568 8.86263C59.7766 8.86263 61.006 9.21756 62.2103 9.91793C62.7584 10.2363 63.4611 10.0504 63.7797 9.5024C64.0983 8.95431 63.9123 8.25164 63.3642 7.93299C61.8048 7.02645 60.1873 6.56683 58.5568 6.56683C53.6703 6.56683 48.9715 10.7657 46.0499 17.6332C45.0548 16.8144 44.0235 16.0699 42.9729 15.4211C38.0279 12.3671 33.3454 11.7081 29.7883 13.5651C26.5073 15.2797 24.4057 19.0817 23.8704 24.2707C23.8052 24.9013 24.2637 25.4653 24.8943 25.5302C25.5264 25.5963 26.089 25.1367 26.1538 24.5062C26.6076 20.1089 28.2758 16.9459 30.851 15.5999C37.1206 12.3267 47.475 19.8493 51.867 28.2594C53.8204 32.0013 54.4215 35.4615 53.6609 38.5597H40.7909C40.7876 38.5597 40.7846 38.5597 40.7814 38.5597H34.8992L32.9727 36.6333C32.5243 36.1851 31.7976 36.1851 31.3493 36.6333C30.901 37.0817 30.901 37.8084 31.3493 38.2567L31.6522 38.5596H28.5008C27.2222 35.6536 26.3817 32.3165 26.121 29.0793C26.0702 28.4475 25.5174 27.975 24.8848 28.0272C24.2528 28.078 23.7819 28.6315 23.8327 29.2634C24.0444 31.8941 24.5874 34.5118 25.4255 36.9822C22.1539 34.1944 17.8805 32.6961 13.4807 32.935C13.0705 32.9574 12.7034 33.1972 12.5184 33.5638C10.7921 36.9819 10.3068 40.8401 11.0228 44.4938C11.0295 44.6046 11.0514 44.7109 11.0872 44.8109C11.3122 45.8533 11.6367 46.8771 12.0579 47.8678C7.14456 48.6299 2.78147 51.5258 0.166249 55.8398C-0.046648 56.1909 -0.055525 56.629 0.142679 56.9889C1.99233 60.3456 4.90784 62.9247 8.33301 64.3942C8.42439 64.4478 8.51974 64.4883 8.61785 64.5144C10.5094 65.2856 12.5492 65.7213 14.6468 65.7646C14.7617 65.7671 14.8754 65.7682 14.9901 65.7682C15.8066 65.7682 16.6155 65.7065 17.4124 65.5906C17.4874 65.5862 17.562 65.5765 17.6344 65.5577C21.0083 65.021 24.1449 63.4716 26.6213 61.1438C26.6775 61.1522 26.7344 61.158 26.7929 61.158H31.9438C32.5779 61.158 33.0917 60.6442 33.0917 60.0101C33.0917 59.376 32.5779 58.8622 31.9438 58.8622H28.6479C28.9491 58.4539 29.2346 58.0313 29.5003 57.593C29.5084 57.5795 29.515 57.5654 29.5225 57.5518C29.5294 57.5394 29.5376 57.5281 29.544 57.5152C32.2177 52.2184 31.9151 45.8654 28.7736 40.8554H33.948L37.0732 43.9806C37.2974 44.2046 37.5913 44.3167 37.885 44.3167C38.1787 44.3167 38.4726 44.2046 38.6968 43.9806C39.1451 43.5321 39.1451 42.8054 38.6968 42.3571L37.195 40.8554H40.3107L44.5723 45.117C44.7966 45.3411 45.0904 45.4531 45.3841 45.4531C45.6778 45.4531 45.9717 45.3411 46.1959 45.117C46.6442 44.6685 46.6442 43.9419 46.1959 43.4936L43.5579 40.8555H54.5232L54.5271 40.8558L54.5309 40.8555H59.6139L57.1079 42.6397C56.5913 43.0073 56.4708 43.7241 56.8385 44.2405C57.0624 44.5551 57.4156 44.7227 57.7746 44.7227C58.0047 44.7227 58.2372 44.6536 58.4393 44.5097L63.5721 40.8554H69.6672L69.6692 40.8555L69.6718 40.8554H72.0624C72.5453 40.8554 73 41.0435 73.3404 41.3828C73.6818 41.7252 73.8699 42.1799 73.8699 42.6629C73.8699 43.354 73.8262 44.0349 73.7418 44.7034L65.3132 50.7809C64.7991 51.1517 64.6828 51.8691 65.0535 52.3835C65.278 52.6947 65.6292 52.8601 65.9855 52.8601C66.2182 52.8601 66.453 52.7896 66.6561 52.6432L72.9212 48.1259C71.6695 51.6091 69.2568 54.5428 66.1516 56.4587L53.3502 43.6573C52.9018 43.2092 52.1751 43.2092 51.7268 43.6573C51.2785 44.1058 51.2785 44.8325 51.7268 45.2808L64.0138 57.5677C62.3499 58.2785 60.5437 58.7179 58.6511 58.8315L53.6467 53.8273C53.1986 53.3791 52.4717 53.379 52.0234 53.8274C51.5751 54.2757 51.5751 55.0024 52.0236 55.4507L55.435 58.8619H44.1972L42.3555 57.0203C41.9071 56.5721 41.1804 56.5721 40.7321 57.0203C40.2838 57.4687 40.2838 58.1954 40.7321 58.6437L40.9503 58.8619H36.7262C36.0921 58.8619 35.5783 59.3757 35.5783 60.0098C35.5783 60.6439 36.0921 61.1577 36.7262 61.1577H43.2451L45.8341 63.7468C46.0583 63.9709 46.3522 64.0829 46.6459 64.0829C46.9396 64.0829 47.2335 63.9709 47.4577 63.7468C47.906 63.2983 47.906 62.5716 47.4577 62.1234L46.4921 61.1577H57.6685C60.5624 61.1577 63.3028 60.4891 65.7445 59.2992L66.7087 60.2634C66.9329 60.4875 67.2268 60.5996 67.5205 60.5996C67.8142 60.5996 68.1081 60.4875 68.3323 60.2634C68.7806 59.815 68.7806 59.0883 68.3323 58.64L67.8125 58.1202C71.9513 55.3956 74.9359 51.0559 75.8618 46.0049L77.8865 44.545C78.4005 44.1743 78.5168 43.457 78.1461 42.9426ZM26.6835 41.8449C26.8122 42.0418 26.934 42.2422 27.0525 42.4441L24.1468 48.2097L20.829 43.133L23.151 38.1041C24.5224 39.1201 25.7252 40.3786 26.6835 41.8449ZM22.8898 50.4827L16.5615 50.8014C16.1349 50.3093 15.738 49.7868 15.3768 49.234C14.622 48.0789 14.046 46.8367 13.6493 45.5483L19.6016 45.4511L22.8898 50.4827ZM21.1889 36.8768L19.3472 40.8653L15.6868 35.2642C17.6224 35.4361 19.4912 35.9917 21.1889 36.8768ZM13.7643 36.5188L18.1169 43.1792L13.1396 43.2605C12.8247 41.0132 13.0295 38.7007 13.7643 36.5188ZM13.1709 50.0392C13.2632 50.1903 13.3576 50.3407 13.4549 50.4898C13.9649 51.2702 14.5353 51.9989 15.1561 52.674C15.2014 52.7329 15.2524 52.7871 15.308 52.8362C16.3391 53.9283 17.5053 54.8726 18.7714 55.6498L12.7319 55.5257L9.88451 50.7633C10.9389 50.3992 12.0404 50.1541 13.1709 50.0392ZM7.76274 51.6882L10.0236 55.4698L3.33093 55.3322C4.56423 53.8259 6.07318 52.5915 7.76274 51.6882ZM8.49938 61.9463C6.46607 60.9384 4.67214 59.4648 3.28547 57.6274L11.2401 57.791L8.49938 61.9463ZM16.6559 63.3753C16.0089 63.4502 15.3536 63.4825 14.6934 63.4695C13.314 63.4408 11.9633 63.2155 10.676 62.8162L13.9536 57.8467L19.9629 57.9703L16.6559 63.3753ZM19.786 62.6583L22.6208 58.025L26.1054 58.0967C26.177 58.1033 26.249 58.108 26.3207 58.1137C24.5934 60.2106 22.3215 61.777 19.786 62.6583ZM26.2395 55.8033C23.576 55.5424 21.0439 54.5547 18.9174 52.9815L24.3439 52.7081L26.3683 55.8059L26.2395 55.8033ZM28.2967 54.5601L25.5982 50.4309L28.2766 45.1161C29.3132 48.1586 29.3304 51.4888 28.2967 54.5601Z" fill="#253D4E"/>
<path d="M66.8808 44.9105C66.5098 44.3963 65.7924 44.2803 65.2783 44.651L61.2333 47.5677C60.7192 47.9384 60.6028 48.6558 60.9737 49.1702C61.1981 49.4813 61.5493 49.6468 61.9056 49.6468C62.1384 49.6468 62.373 49.5762 62.5761 49.4298L66.6212 46.513C67.1353 46.1423 67.2516 45.425 66.8808 44.9105Z" fill="#253D4E"/>
</g>
<path d="M94.4748 60.878L94.4648 55.7295L92.1487 59.9903H91.5647L89.2487 55.7961V60.878H88V53.111H89.0775L91.8768 58.2594L94.6259 53.111H95.7033L95.7134 60.878H94.4748ZM103.195 59.0805H99.6718L98.9766 60.878H97.6274L100.799 53.111H102.088L105.27 60.878H103.901L103.195 59.0805ZM102.763 57.9487L101.434 54.5534L100.115 57.9487H102.763ZM111.786 60.878L110.346 58.6034C110.285 58.6108 110.194 58.6144 110.074 58.6144H108.483V60.878H107.173V53.111H110.074C110.684 53.111 111.215 53.2219 111.664 53.4438C112.121 53.6657 112.47 53.9838 112.712 54.3981C112.954 54.8123 113.074 55.3042 113.074 55.8738C113.074 56.4581 112.944 56.9612 112.681 57.3828C112.427 57.8044 112.057 58.1188 111.574 58.3259L113.196 60.878H111.786ZM111.756 55.8738C111.756 55.3782 111.607 54.9972 111.312 54.7309C111.017 54.4647 110.584 54.3315 110.013 54.3315H108.483V57.4272H110.013C110.584 57.4272 111.017 57.294 111.312 57.0278C111.607 56.7541 111.756 56.3694 111.756 55.8738ZM116.877 54.3315H114.542V53.111H120.522V54.3315H118.187V60.878H116.877V54.3315ZM131.588 61L130.703 60.0569C130.044 60.6783 129.256 60.989 128.336 60.989C127.846 60.989 127.406 60.9002 127.017 60.7227C126.627 60.5451 126.322 60.301 126.1 59.9903C125.879 59.6722 125.768 59.3134 125.768 58.914C125.768 58.4332 125.896 58.0115 126.151 57.6491C126.406 57.2792 126.822 56.9168 127.4 56.5617C127.117 56.251 126.916 55.9625 126.796 55.6963C126.674 55.4226 126.614 55.1415 126.614 54.8529C126.614 54.3056 126.799 53.8654 127.168 53.5326C127.544 53.1923 128.041 53.0222 128.659 53.0222C129.229 53.0222 129.686 53.1775 130.028 53.4882C130.37 53.7914 130.542 54.2057 130.542 54.7309C130.542 55.1304 130.427 55.4854 130.199 55.7961C129.977 56.1068 129.611 56.4211 129.102 56.7393L130.622 58.3371C130.79 57.9745 130.921 57.5381 131.014 57.0278L132.031 57.3938C131.897 58.0818 131.686 58.6736 131.397 59.1693L132.283 60.1012L131.588 61ZM128.659 54.0097C128.383 54.0097 128.165 54.0873 128.004 54.2426C127.843 54.3907 127.762 54.5866 127.762 54.8307C127.762 55.0083 127.806 55.1785 127.893 55.3412C127.98 55.4965 128.148 55.711 128.396 55.9847C128.799 55.7406 129.078 55.5298 129.232 55.3523C129.393 55.1673 129.474 54.9676 129.474 54.7531C129.474 54.5238 129.4 54.3426 129.253 54.2094C129.112 54.0763 128.913 54.0097 128.659 54.0097ZM128.427 59.8572C129.011 59.8572 129.521 59.6611 129.957 59.2691L128.095 57.3051C127.692 57.5493 127.406 57.786 127.239 58.0153C127.078 58.2372 126.997 58.4887 126.997 58.7697C126.997 59.0953 127.128 59.3578 127.39 59.5575C127.652 59.7573 127.997 59.8572 128.427 59.8572ZM143.022 56.9057H144.26V60.0014C143.898 60.3195 143.475 60.5636 142.991 60.7337C142.509 60.9038 142.011 60.989 141.502 60.989C140.783 60.989 140.135 60.8188 139.558 60.4785C138.98 60.1308 138.527 59.6537 138.199 59.0472C137.87 58.4406 137.705 57.7564 137.705 56.9944C137.705 56.2326 137.87 55.5483 138.199 54.9417C138.527 54.3352 138.98 53.8618 139.558 53.5215C140.142 53.1738 140.797 53 141.521 53C142.112 53 142.649 53.1072 143.133 53.3217C143.616 53.5363 144.022 53.8506 144.352 54.2649L143.526 55.1525C142.989 54.5608 142.34 54.2649 141.582 54.2649C141.085 54.2649 140.642 54.3795 140.253 54.6088C139.871 54.8381 139.568 55.1599 139.346 55.5742C139.131 55.9885 139.025 56.4619 139.025 56.9944C139.025 57.5123 139.131 57.9783 139.346 58.3925C139.568 58.8067 139.871 59.1323 140.253 59.369C140.642 59.6057 141.082 59.724 141.572 59.724C142.123 59.724 142.605 59.5909 143.022 59.3246V56.9057ZM151.606 60.878L150.166 58.6034C150.105 58.6108 150.015 58.6144 149.895 58.6144H148.303V60.878H146.994V53.111H149.895C150.505 53.111 151.036 53.2219 151.485 53.4438C151.941 53.6657 152.291 53.9838 152.533 54.3981C152.774 54.8123 152.895 55.3042 152.895 55.8738C152.895 56.4581 152.763 56.9612 152.502 57.3828C152.247 57.8044 151.878 58.1188 151.394 58.3259L153.015 60.878H151.606ZM151.575 55.8738C151.575 55.3782 151.428 54.9972 151.132 54.7309C150.837 54.4647 150.404 54.3315 149.834 54.3315H148.303V57.4272H149.834C150.404 57.4272 150.837 57.294 151.132 57.0278C151.428 56.7541 151.575 56.3694 151.575 55.8738ZM158.66 60.989C157.941 60.989 157.293 60.8188 156.716 60.4785C156.138 60.1308 155.685 59.6537 155.357 59.0472C155.027 58.4332 154.863 57.749 154.863 56.9944C154.863 56.24 155.027 55.5594 155.357 54.9528C155.685 54.3389 156.138 53.8618 156.716 53.5215C157.293 53.1738 157.941 53 158.66 53C159.378 53 160.025 53.1738 160.603 53.5215C161.18 53.8618 161.633 54.3352 161.962 54.9417C162.291 55.5483 162.455 56.2326 162.455 56.9944C162.455 57.7564 162.291 58.4406 161.962 59.0472C161.633 59.6537 161.18 60.1308 160.603 60.4785C160.025 60.8188 159.378 60.989 158.66 60.989ZM158.66 59.724C159.129 59.724 159.552 59.6093 159.928 59.38C160.304 59.1433 160.599 58.8179 160.814 58.4037C161.029 57.9819 161.136 57.5123 161.136 56.9944C161.136 56.4767 161.029 56.0107 160.814 55.5963C160.599 55.1747 160.304 54.8493 159.928 54.62C159.552 54.3833 159.129 54.2649 158.66 54.2649C158.189 54.2649 157.767 54.3833 157.391 54.62C157.015 54.8493 156.719 55.1747 156.504 55.5963C156.289 56.0107 156.182 56.4767 156.182 56.9944C156.182 57.5123 156.289 57.9819 156.504 58.4037C156.719 58.8179 157.015 59.1433 157.391 59.38C157.767 59.6093 158.189 59.724 158.66 59.724ZM168.113 60.989C167.401 60.989 166.756 60.8188 166.179 60.4785C165.609 60.1308 165.159 59.6537 164.83 59.0472C164.508 58.4406 164.346 57.7564 164.346 56.9944C164.346 56.2326 164.511 55.5483 164.84 54.9417C165.169 54.3352 165.619 53.8618 166.189 53.5215C166.766 53.1738 167.411 53 168.123 53C168.7 53 169.227 53.1109 169.703 53.3329C170.181 53.5548 170.583 53.8766 170.912 54.2982L170.066 55.1747C169.556 54.5682 168.928 54.2649 168.183 54.2649C167.7 54.2649 167.267 54.3833 166.884 54.62C166.501 54.8493 166.203 55.1711 165.987 55.5853C165.773 55.9995 165.666 56.4693 165.666 56.9944C165.666 57.5197 165.773 57.9893 165.987 58.4037C166.203 58.8179 166.501 59.1433 166.884 59.38C167.267 59.6093 167.7 59.724 168.183 59.724C168.928 59.724 169.556 59.417 170.066 58.8031L170.912 59.6907C170.583 60.1124 170.177 60.4341 169.693 60.6561C169.217 60.878 168.69 60.989 168.113 60.989ZM178.46 59.6685V60.878H173.173V53.111H178.319V54.3204H174.482V56.3398H177.885V57.5271H174.482V59.6685H178.46ZM185.538 60.878L184.098 58.6034C184.037 58.6108 183.947 58.6144 183.826 58.6144H182.235V60.878H180.926V53.111H183.826C184.437 53.111 184.967 53.2219 185.417 53.4438C185.874 53.6657 186.223 53.9838 186.464 54.3981C186.706 54.8123 186.827 55.3042 186.827 55.8738C186.827 56.4581 186.696 56.9612 186.434 57.3828C186.179 57.8044 185.81 58.1188 185.326 58.3259L186.948 60.878H185.538ZM185.508 55.8738C185.508 55.3782 185.36 54.9972 185.064 54.7309C184.769 54.4647 184.336 54.3315 183.766 54.3315H182.235V57.4272H183.766C184.336 57.4272 184.769 57.294 185.064 57.0278C185.36 56.7541 185.508 56.3694 185.508 55.8738ZM192.241 58.1373V60.878H190.932V58.1595L188.163 53.111H189.563L191.627 56.8946L193.711 53.111H195L192.241 58.1373Z" fill="#253D4E"/>
<path d="M145.758 31.3877C145.721 32.2799 145.368 33.0047 144.699 33.5623C144.03 34.1199 143.249 34.3987 142.357 34.3987H123.957C124.403 36.5918 125.425 38.3203 127.024 39.5842C128.622 40.8108 130.425 41.4242 132.432 41.4242C133.956 41.4242 135.146 41.2941 136.001 41.0339C136.856 40.7365 137.525 40.4391 138.008 40.1417C138.528 39.8072 138.882 39.5842 139.067 39.4727C139.737 39.1381 140.368 38.9708 140.963 38.9708C141.744 38.9708 142.413 39.2496 142.97 39.8072C143.528 40.3648 143.807 41.0153 143.807 41.7587C143.807 42.7624 143.286 43.6731 142.246 44.4909C141.205 45.3458 139.811 46.0707 138.064 46.6655C136.317 47.2602 134.551 47.5576 132.767 47.5576C129.644 47.5576 126.912 46.9071 124.57 45.606C122.266 44.305 120.481 42.5208 119.218 40.2533C117.954 37.9486 117.322 35.3651 117.322 32.5029C117.322 29.3061 117.991 26.4996 119.329 24.0834C120.667 21.6672 122.433 19.8272 124.626 18.5633C126.819 17.2623 129.161 16.6118 131.652 16.6118C134.105 16.6118 136.41 17.2809 138.566 18.6191C140.759 19.9573 142.506 21.7601 143.807 24.0276C145.108 26.2951 145.758 28.7485 145.758 31.3877ZM131.652 22.7452C127.34 22.7452 124.793 24.7711 124.013 28.8228H138.621V28.4325C138.473 26.8713 137.711 25.5331 136.335 24.418C134.96 23.3028 133.399 22.7452 131.652 22.7452ZM149.588 42.3721C149.253 41.926 149.086 41.3684 149.086 40.6993C149.086 39.7329 149.569 38.9151 150.536 38.246C151.056 37.9114 151.595 37.7441 152.153 37.7441C152.933 37.7441 153.677 38.0973 154.383 38.8036C155.498 39.9559 156.65 40.8108 157.84 41.3684C159.067 41.926 160.535 42.2048 162.245 42.2048C165.144 42.0933 166.594 40.9967 166.594 38.9151C166.594 37.8371 166.092 37.0193 165.089 36.4617C164.122 35.9041 162.598 35.3465 160.516 34.789C158.36 34.1942 156.595 33.5995 155.219 33.0047C153.881 32.41 152.71 31.5178 151.707 30.3283C150.74 29.1016 150.257 27.4661 150.257 25.4216C150.257 23.6373 150.759 22.0947 151.762 20.7937C152.803 19.4555 154.141 18.4332 155.777 17.727C157.45 16.9835 159.215 16.6118 161.074 16.6118C162.97 16.6118 164.866 16.9649 166.761 17.6712C168.657 18.3775 170.144 19.4183 171.222 20.7937C171.705 21.3884 171.947 22.0575 171.947 22.801C171.947 23.6559 171.594 24.3622 170.887 24.9198C170.367 25.3287 169.772 25.5331 169.103 25.5331C168.285 25.5331 167.616 25.2729 167.096 24.7525C166.427 23.9347 165.553 23.2842 164.475 22.801C163.434 22.3177 162.245 22.0761 160.907 22.0761C158.082 22.0761 156.669 23.0983 156.669 25.1428C156.669 25.9606 156.929 26.6297 157.45 27.1501C157.97 27.6333 158.621 28.0236 159.401 28.321C160.219 28.5812 161.353 28.9158 162.802 29.3247C164.81 29.8823 166.482 30.4584 167.821 31.0532C169.159 31.6479 170.293 32.5586 171.222 33.7853C172.151 35.012 172.616 36.629 172.616 38.6363C172.616 40.4577 172.077 42.0561 170.999 43.4315C169.921 44.7697 168.527 45.7919 166.817 46.4982C165.144 47.2044 163.416 47.5576 161.632 47.5576C159.178 47.5576 156.892 47.1487 154.773 46.3309C152.654 45.5131 150.926 44.1935 149.588 42.3721ZM192.579 40.6993C193.099 40.6993 193.564 40.9595 193.972 41.4799C194.419 41.9632 194.642 42.6137 194.642 43.4315C194.642 44.4351 194.084 45.2901 192.969 45.9964C191.891 46.6655 190.664 47 189.289 47C186.984 47 185.033 46.5168 183.434 45.5503C181.873 44.5466 181.092 42.4464 181.092 39.2496V23.8604H178.527C177.635 23.8604 176.892 23.563 176.297 22.9682C175.702 22.3735 175.405 21.63 175.405 20.7379C175.405 19.883 175.702 19.1767 176.297 18.6191C176.892 18.0244 177.635 17.727 178.527 17.727H181.092V14.1585C181.092 13.192 181.408 12.3928 182.04 11.7609C182.709 11.0918 183.527 10.7572 184.494 10.7572C185.423 10.7572 186.203 11.0918 186.835 11.7609C187.467 12.3928 187.783 13.192 187.783 14.1585V17.727H191.742C192.634 17.727 193.378 18.0244 193.972 18.6191C194.567 19.2139 194.865 19.9573 194.865 20.8494C194.865 21.7044 194.567 22.4292 193.972 23.024C193.378 23.5816 192.634 23.8604 191.742 23.8604H187.783V38.9708C187.783 39.7514 187.988 40.3276 188.397 40.6993C188.806 41.0339 189.363 41.2012 190.069 41.2012C190.367 41.2012 190.776 41.1268 191.296 40.9781C191.742 40.7923 192.17 40.6993 192.579 40.6993Z" fill="#3BB77E"/>
<path d="M114.834 44.1446C114.843 44.9624 114.648 45.6293 114.249 46.1453C113.85 46.6603 113.348 46.9216 112.741 46.9283L90.6388 47.1694C89.9817 47.1766 89.4223 46.8764 88.9607 46.2671C88.5247 45.6924 88.3019 44.9622 88.2922 44.0765C88.287 43.5989 88.3323 43.1216 88.4282 42.6437C88.5498 42.1986 88.7105 41.8732 88.9105 41.6665L106.372 22.7129L90.1844 22.8895C89.5778 22.8962 89.0693 22.6291 88.659 22.0882C88.2491 21.5814 88.0394 20.902 88.0301 20.0501C88.0212 19.2322 88.2161 18.5654 88.6149 18.0497C89.0138 17.5341 89.5164 17.273 90.1231 17.2664L112.225 17.0252C112.882 17.0181 113.429 17.3018 113.865 17.8765C114.327 18.485 114.562 19.2323 114.572 20.1184C114.577 20.6296 114.507 21.1246 114.361 21.6033C114.215 22.1162 114.016 22.4933 113.766 22.7346L96.3784 41.5337L112.68 41.3559C113.287 41.3492 113.795 41.5995 114.205 42.1067C114.615 42.6478 114.825 43.3268 114.834 44.1446Z" fill="#3BB77E"/>
</svg>
